<?xml version="1.0" encoding="utf-8"?>
<!-- Generator: Adobe Illustrator 21.1.0, SVG Export Plug-In . SVG Version: 6.00 Build 0)  -->
<svg version="1.1" id="Layer_1" xmlns="http://www.w3.org/2000/svg" xmlns:xlink="http://www.w3.org/1999/xlink" x="0px" y="0px"
	 viewBox="0 0 301 300" style="enable-background:new 0 0 301 300;" xml:space="preserve">
<style type="text/css">
	.st0{fill:#A6A8AB;}
	.st1{fill:#F68F1E;}
	.st2{fill:none;}
</style>
<path class="st0" d="M149.8,162.8c18.2,0,30-7.6,32-43h-64.3C119.6,155.1,132,162.8,149.8,162.8"/>
<path class="st0" d="M142.1,103c5.3-5.3,5.3-13.8,0-19c-5.3-5.3-13.8-5.3-19,0c-4.7,4.8-5.2,12.1-1.4,17.4l-2.9,5.9l5.9-2.9
	C130,108.2,137.4,107.7,142.1,103"/>
<path class="st0" d="M110,65.5c-3.7-3.7-9.7-3.7-13.4,0c-3.7,3.7-3.7,9.7,0,13.4c3.3,3.3,8.5,3.6,12.2,1l4.2,2.1l-2-4.2
	C113.7,74.1,113.4,68.9,110,65.5"/>
<path class="st0" d="M127.2,45.3c2.3-2.4,2.3-6.2,0-8.6c-2.4-2.3-6.2-2.3-8.5,0c-2.1,2.1-2.3,5.5-0.6,7.8l-1.3,2.6l2.7-1.3
	C121.8,47.6,125.1,47.4,127.2,45.3"/>
<path class="st1" d="M193.4,23v20.5c-4.2-5.5-8.6-9.5-13.1-12.8l-15.1,15.1c23.9,7.9,27.8,35.3,27.8,62.8c0,32.5-5.3,65.1-43.2,65.1
	c-37.8,0-43.5-32.5-43.5-65.1c0-1.3,0-2.6,0-3.9l-24.6,24.6c1.9,20.4,7.3,38.8,20.3,51.8c9.2,9.2,24.4,15.6,42.1,15.6
	c18.7,0,34.7-4.6,48.8-22.6v27.2c0,29.7-14.2,53.4-47.8,53.4c-20.2,0-29-6-41.7-17.3l-16.6,16.3c18.4,16.6,32.9,23.3,59.1,23.3
	c45.6,0,72.5-31.5,72.5-74.6V23H193.4z"/>
<rect x="81.7" y="23" class="st2" width="136.7" height="254"/>
</svg>
